<svg xmlns="http://www.w3.org/2000/svg" xmlns:xlink="http://www.w3.org/1999/xlink" viewBox="0,0,256,256" width="32px" height="32px" fill-rule="nonzero"><g fill-opacity="0" fill="#000000" fill-rule="nonzero" stroke="none" stroke-width="1" stroke-linecap="butt" stroke-linejoin="miter" stroke-miterlimit="10" stroke-dasharray="" stroke-dashoffset="0" font-family="none" font-weight="none" font-size="none" text-anchor="none" style="mix-blend-mode: normal"><g transform="scale(8,8)"><path d="M4,3c-0.55228,0.82843 -1.67157,1.05228 -2.5,0.5c-0.82843,-0.55228 -1.05228,-1.67157 -0.5,-2.5c0,0 NaN,NaN NaN,NaNcNaN,NaN NaN,NaN NaN,NaNzM25,6c-1.38071,6.62742 -7.87258,10.88071 -14.5,9.5c-6.62742,-1.38071 -10.88071,-7.87258 -9.5,-14.5c0,0 NaN,NaN NaN,NaNcNaN,NaN NaN,NaN NaN,NaNzM7,6c-1.38071,1.65685 -3.84315,1.88071 -5.5,0.5c-1.65685,-1.38071 -1.88071,-3.84315 -0.5,-5.5c0,0 NaN,NaN NaN,NaNcNaN,NaN NaN,NaN NaN,NaNzM22,9c-2.20914,5.79899 -8.70101,8.70914 -14.5,6.5c-5.79899,-2.20914 -8.70914,-8.70101 -6.5,-14.5c0,0 NaN,NaN NaN,NaNcNaN,NaN NaN,NaN NaN,NaNzM10,9c-2.20914,2.48528 -6.01472,2.70914 -8.5,0.5c-2.48528,-2.20914 -2.70914,-6.01472 -0.5,-8.5c0,0 NaN,NaN NaN,NaNcNaN,NaN NaN,NaN NaN,NaNzM19,12c-3.03757,4.97056 -9.52944,6.53757 -14.5,3.5c-4.97056,-3.03757 -6.53757,-9.52944 -3.5,-14.5c0,0 NaN,NaN NaN,NaNcNaN,NaN NaN,NaN NaN,NaNzM13,12c-3.03757,3.31371 -8.18629,3.53757 -11.5,0.5c-3.31371,-3.03757 -3.53757,-8.18629 -0.5,-11.5c0,0 NaN,NaN NaN,NaNcNaN,NaN NaN,NaN NaN,NaNzM16,15c-3.86599,4.14214 -10.35786,4.36599 -14.5,0.5c-4.14214,-3.86599 -4.36599,-10.35786 -0.5,-14.5c0,0 NaN,NaN NaN,NaNcNaN,NaN NaN,NaN NaN,NaNzM19,18c-4.69442,4.97056 -12.52944,5.19442 -17.5,0.5c-4.97056,-4.69442 -5.19442,-12.52944 -0.5,-17.5c0,0 NaN,NaN NaN,NaNcNaN,NaN NaN,NaN NaN,NaNzM13,18c-4.69442,3.31371 -11.18629,2.19442 -14.5,-2.5c-3.31371,-4.69442 -2.19442,-11.18629 2.5,-14.5c0,0 NaN,NaN NaN,NaNcNaN,NaN NaN,NaN NaN,NaNzM22,21c-5.52285,5.79899 -14.70101,6.02285 -20.5,0.5c-5.79899,-5.52285 -6.02285,-14.70101 -0.5,-20.5c0,0 NaN,NaN NaN,NaNcNaN,NaN NaN,NaN NaN,NaNzM10,21c-5.52285,2.48528 -12.01472,0.02285 -14.5,-5.5c-2.48528,-5.52285 -0.02285,-12.01472 5.5,-14.5c0,0 NaN,NaN NaN,NaNcNaN,NaN NaN,NaN NaN,NaNzM25,24c-6.35127,6.62742 -16.87258,6.85127 -23.5,0.5c-6.62742,-6.35127 -6.85127,-16.87258 -0.5,-23.5c0,0 NaN,NaN NaN,NaNcNaN,NaN NaN,NaN NaN,NaNzM28,3c-0.55228,7.45584 -7.04416,13.05228 -14.5,12.5c-7.45584,-0.55228 -13.05228,-7.04416 -12.5,-14.5c0,0 NaN,NaN NaN,NaNcNaN,NaN NaN,NaN NaN,NaNzM7,24c-6.35127,1.65685 -12.84315,-2.14873 -14.5,-8.5c-1.65685,-6.35127 2.14873,-12.84315 8.5,-14.5c0,0 NaN,NaN NaN,NaNcNaN,NaN NaN,NaN NaN,NaNzM28,27c-7.1797,7.45584 -19.04416,7.6797 -26.5,0.5c-7.45584,-7.1797 -7.6797,-19.04416 -0.5,-26.5c0,0 NaN,NaN NaN,NaNcNaN,NaN NaN,NaN NaN,NaNzM4,27c-7.1797,0.82843 -13.67157,-4.3203 -14.5,-11.5c-0.82843,-7.1797 4.3203,-13.67157 11.5,-14.5c0,0 NaN,NaN NaN,NaNcNaN,NaN NaN,NaN NaN,NaNz"></path></g></g></svg>